#!OML:ASF E:\Steps\Project 1\Capture day 1\Session 2\Subject.ASF
:FULLY-SPECIFIED
:DEGREES
111
root -0.956849 16.4746 20.8266 -153.96 11.4261 -169.41
lowerback -19.3207 -1.54642 -2.07971
upperback 2.20974 -1.87012 2.80331
thorax 13.5906 -1.13556 3.78334
lowerneck -2.63101 -5.26209 0.43575
upperneck 20.6008 -6.69157 2.98375
head 6.79296 -2.51477 0.49631
rclavicle 6.75868e-015 -2.8625e-014
rhumerus -42.316 -14.7844 -77.874
rradius 40.531
rwrist -5.13953
rhand -8.32852 -54.6238
rfingers 7.12502
rthumb 17.5927 -83.8479
lclavicle 6.75868e-015 -2.8625e-014
lhumerus -28.1411 1.51563 78.3435
lradius 32.4565
lwrist 1.99581
lhand -23.713 -14.391
lfingers 7.12502
lthumb 2.75454 15.571
rfemur -74.0489 1.17309 17.0775
rtibia 60.065
rfoot -26.8292 -0.418469
rtoes -35.3208
lfemur -24.7581 -8.71574 -6.88481
ltibia 15.1921
lfoot -14.6876 12.5313
ltoes -20.7879
112
root -0.92237 16.4703 20.7964 -153.93 11.2544 -169.347
lowerback -19.2188 -1.56023 -1.97605
upperback 2.10589 -1.90415 2.75594
thorax 13.406 -1.1356 3.6585
lowerneck -2.63902 -5.33764 0.645188
upperneck 20.691 -6.79345 2.8995
head 6.81482 -2.54835 0.427872
rclavicle -3.57812e-014 1.82882e-014
rhumerus -42.6396 -15.0258 -77.8447
rradius 40.5735
rwrist -4.9756
rhand -8.37071 -54.2793
rfingers 7.12502
rthumb 17.5521 -83.507
lclavicle -3.57812e-014 1.82882e-014
lhumerus -28.2376 1.27159 78.2144
lradius 32.7128
lwrist 2.22192
lhand -23.3402 -14.0464
lfingers 7.12502
lthumb 3.11453 15.9106
rfemur -73.841 1.17166 17.0427
rtibia 59.2916
rfoot -26.0546 0.478331
rtoes -34.612
lfemur -24.7007 -8.74434 -6.66938
ltibia 15.2268
lfoot -14.9226 12.4658
ltoes -20.6471
113
root -0.887044 16.4661 20.764 -153.927 11.0915 -169.3
lowerback -19.7728 -1.58656 -1.74408
upperback 2.39344 -1.98762 2.61468
thorax 14.0613 -1.16477 3.3386
lowerneck -2.88837 -5.1926 0.714485
upperneck 20.6515 -6.65803 3.08638
head 6.84843 -2.46713 0.478476
rclavicle 3.85642e-014 -1.03368e-014
rhumerus -42.3263 -15.2748 -78.1358
rradius 40.5607
rwrist -4.98219
rhand -8.34405 -54.0845
rfingers 7.12502
rthumb 17.5778 -83.3098
lclavicle 3.85642e-014 -1.03368e-014
lhumerus -27.7265 1.38528 77.8928
lradius 32.6962
lwrist 2.16558
lhand -22.7212 -14.2711
lfingers 7.12502
lthumb 3.71229 15.6763
rfemur -73.5499 1.13953 17.0603
rtibia 58.4867
rfoot -25.1938 1.51782
rtoes -33.8888
lfemur -24.6022 -8.73318 -6.49957
ltibia 15.3099
lfoot -15.1283 12.3636
ltoes -20.3702
114
root -0.852239 16.4619 20.7307 -153.893 10.9113 -169.308
lowerback -19.3552 -1.72526 -1.98051
upperback 2.03527 -2.12941 2.86495
thorax 13.429 -1.24173 3.71449
lowerneck -2.86161 -5.08759 0.259557
upperneck 21.2109 -6.40625 2.9802
head 7.03244 -2.35342 0.536352
rclavicle -2.8625e-014 2.3059e-014
rhumerus -43.0553 -14.7907 -77.6089
rradius 40.7476
rwrist -5.55911
rhand -8.29902 -54.1676
rfingers 7.12502
rthumb 17.6211 -83.3891
lclavicle -2.8625e-014 2.3059e-014
lhumerus -28.2703 1.47361 78.2939
lradius 32.7981
lwrist 1.87144
lhand -23.4107 -13.7398
lfingers 7.12502
lthumb 3.04644 16.2182
rfemur -73.3217 1.13728 17.0404
rtibia 57.8655
rfoot -24.3761 1.99004
rtoes -35.1223
lfemur -24.5902 -8.74505 -6.39655
ltibia 15.4744
lfoot -15.3045 12.2538
ltoes -19.905
115
root -0.814339 16.4561 20.6955 -153.843 10.7769 -169.313
lowerback -19.233 -1.78526 -2.10242
upperback 1.85684 -2.18147 2.95168
thorax 13.164 -1.26941 3.86643
lowerneck -2.8275 -5.09175 0.156556
upperneck 21.5436 -6.34821 2.85439
head 7.1329 -2.32214 0.517569
rclavicle -3.89618e-014 6.91771e-014
rhumerus -43.5956 -14.7606 -77.3233
rradius 40.9574
rwrist -5.70354
rhand -8.2136 -53.8593
rfingers 7.12502
rthumb 17.7033 -83.0734
lclavicle -3.89618e-014 6.91771e-014
lhumerus -28.3518 1.61378 78.346
lradius 32.6854
lwrist 2.1379
lhand -23.5222 -14.0887
lfingers 7.12502
lthumb 2.93878 15.8708
rfemur -73.1437 1.23029 17.0257
rtibia 57.3796
rfoot -23.3998 2.36132
rtoes -36.9134
lfemur -24.5573 -8.77661 -6.25624
ltibia 15.5604
lfoot -15.5379 12.1302
ltoes -19.3524
116
root -0.775302 16.4511 20.6639 -153.755 10.6259 -169.379
lowerback -19.6926 -1.81395 -2.04181
upperback 2.03086 -2.22291 2.80626
thorax 13.6302 -1.28884 3.65183
lowerneck -2.95252 -5.08325 0.333595
upperneck 21.5654 -6.37119 2.90049
head 7.15835 -2.31508 0.498246
rclavicle -1.74931e-014 -2.46493e-014
rhumerus -43.4115 -15.1541 -77.489
rradius 40.9149
rwrist -5.46946
rhand -8.14405 -53.4054
rfingers 7.12502
rthumb 17.7702 -82.6134
lclavicle -1.74931e-014 -2.46493e-014
lhumerus -27.974 1.34447 78.2327
lradius 32.7167
lwrist 1.92953
lhand -24.1175 -13.6515
lfingers 7.12502
lthumb 2.36385 16.3152
rfemur -72.9706 1.13976 17.0593
rtibia 56.8514
rfoot -22.2859 3.28638
rtoes -36.7278
lfemur -24.5934 -8.83452 -6.15464
ltibia 15.6159
lfoot -15.7203 12.0244
ltoes -19.0055
117
root -0.737064 16.4491 20.6374 -153.662 10.3959 -169.456
lowerback -19.9707 -1.84503 -1.9492
upperback 2.13091 -2.2745 2.67344
thorax 13.9045 -1.30535 3.42922
lowerneck -2.97616 -5.09751 0.517506
upperneck 21.4752 -6.42389 2.93634
head 7.12918 -2.32839 0.475266
rclavicle 1.31198e-014 -5.56597e-015
rhumerus -43.2396 -15.4309 -77.6321
rradius 40.7878
rwrist -5.55288
rhand -8.12424 -53.4103
rfingers 7.12502
rthumb 17.7893 -82.6166
lclavicle 1.31198e-014 -5.56597e-015
lhumerus -27.6833 1.29644 77.977
lradius 32.9258
lwrist 2.28628
lhand -23.0589 -14.3168
lfingers 7.12502
lthumb 3.38619 15.636
rfemur -72.7902 1.01314 17.1
rtibia 56.4259
rfoot -21.4196 4.23594
rtoes -35.6138
lfemur -24.7275 -8.96765 -6.03008
ltibia 15.7768
lfoot -15.8052 12.0274
ltoes -19.6843
118
root -0.697685 16.4458 20.606 -153.579 10.1461 -169.418
lowerback -19.8514 -1.88969 -1.95402
upperback 1.95495 -2.33177 2.74289
thorax 13.6367 -1.32633 3.49325
lowerneck -2.66669 -5.174 0.472407
upperneck 21.3549 -6.50306 2.92747
head 7.03767 -2.37413 0.483026
rclavicle 9.93923e-015 -1.66979e-014
rhumerus -43.6181 -15.4993 -77.3989
rradius 40.8168
rwrist -5.64879
rhand -8.11149 -53.6444
rfingers 7.12502
rthumb 17.8016 -82.8496
lclavicle 9.93923e-015 -1.66979e-014
lhumerus -27.8143 1.11834 78.0526
lradius 32.8957
lwrist 2.11561
lhand -23.0498 -13.5586
lfingers 7.12502
lthumb 3.39503 16.3941
rfemur -72.5996 1.03925 17.258
rtibia 56.145
rfoot -20.6931 5.01762
rtoes -35.2502
lfemur -24.7833 -9.06339 -5.7755
ltibia 15.8993
lfoot -15.942 11.9825
ltoes -20.2593
119
root -0.655463 16.4402 20.5686 -153.439 9.94404 -169.388
lowerback -20.172 -1.96078 -1.98518
upperback 1.9682 -2.4232 2.8196
thorax 13.8542 -1.37554 3.56702
lowerneck -2.65874 -5.15899 0.275283
upperneck 21.2941 -6.49283 3.05973
head 7.02758 -2.3778 0.558924
rclavicle 0 3.49861e-014
rhumerus -43.7025 -15.6448 -77.2204
rradius 40.9218
rwrist -5.64222
rhand -7.97405 -53.9837
rfingers 7.12502
rthumb 17.9338 -83.1768
lclavicle 0 3.49861e-014
lhumerus -27.5912 1.15899 78.1542
lradius 32.7735
lwrist 2.00615
lhand -23.1585 -13.4587
lfingers 7.12502
lthumb 3.29001 16.4957
rfemur -72.4913 1.0727 17.4666
rtibia 55.907
rfoot -19.7323 5.69767
rtoes -35.5049
lfemur -24.8247 -9.05676 -5.55672
ltibia 15.9573
lfoot -16.0832 11.9095
ltoes -20.6313
120
root -0.609748 16.4359 20.5337 -153.322 9.80728 -169.419
lowerback -20.4536 -1.98339 -1.95551
upperback 2.02463 -2.45316 2.75605
thorax 14.0838 -1.38764 3.46527
lowerneck -2.89401 -5.15718 0.297683
upperneck 21.3764 -6.51902 3.11841
head 7.09777 -2.38123 0.56571
rclavicle 1.27222e-014 2.22639e-014
rhumerus -43.764 -15.7607 -77.2798
rradius 41.1282
rwrist -5.96483
rhand -7.75129 -54.2895
rfingers 7.12502
rthumb 18.1481 -83.4629
lclavicle 1.27222e-014 2.22639e-014
lhumerus -27.2922 1.48682 77.9256
lradius 32.7393
lwrist 2.40007
lhand -22.3014 -13.944
lfingers 7.12502
lthumb 4.1177 15.996
rfemur -72.3443 1.20788 17.5588
rtibia 55.702
rfoot -18.6544 6.06248
rtoes -35.2718
lfemur -24.8787 -9.02364 -5.41584
ltibia 16.0509
lfoot -16.1121 11.9729
ltoes -21.7894
121
root -0.565195 16.4328 20.5012 -153.231 9.6711 -169.498
lowerback -20.8845 -1.97954 -1.94546
upperback 2.2017 -2.44258 2.647
thorax 14.54 -1.38644 3.33438
lowerneck -2.94091 -5.14381 0.492182
upperneck 21.1765 -6.53271 3.09272
head 7.03372 -2.38816 0.52343
rclavicle -6.75868e-015 -4.77083e-015
rhumerus -43.5802 -16.0074 -77.3944
rradius 41.15
rwrist -6.19074
rhand -7.60162 -54.171
rfingers 7.12502
rthumb 18.2921 -83.331
lclavicle -6.75868e-015 -4.77083e-015
lhumerus -26.9297 1.32163 77.9155
lradius 32.7493
lwrist 1.95087
lhand -23.1194 -13.7208
lfingers 7.12502
lthumb 3.32778 16.233
rfemur -72.1216 1.32398 17.6078
rtibia 55.4851
rfoot -17.574 6.48505
rtoes -33.7757
lfemur -24.9122 -9.07946 -5.33
ltibia 16.1089
lfoot -16.0414 12.1579
ltoes -23.412
122
root -0.522376 16.4282 20.4632 -153.175 9.45416 -169.635
lowerback -20.3665 -2.06382 -2.0517
upperback 1.82198 -2.51816 2.68323
thorax 13.8003 -1.4124 3.41643
lowerneck -2.9809 -5.06592 0.479885
upperneck 21.7495 -6.33585 2.86719
head 7.21716 -2.27439 0.465409
rclavicle 4.33351e-014 1.59028e-014
rhumerus -44.2172 -15.9107 -77.0726
rradius 41.0264
rwrist -6.12564
rhand -7.61315 -53.6028
rfingers 7.12502
rthumb 18.281 -82.7637
lclavicle 4.33351e-014 1.59028e-014
lhumerus -27.5567 1.48245 77.9319
lradius 33.0715
lwrist 2.2675
lhand -22.7663 -13.8348
lfingers 7.12502
lthumb 3.66878 16.1134
rfemur -71.8509 1.26449 17.7185
rtibia 55.2755
rfoot -16.76 6.88813
rtoes -31.7171
lfemur -24.8817 -9.20583 -5.31186
ltibia 16.1281
lfoot -16.0053 12.2363
ltoes -24.7224
123
root -0.476828 16.4211 20.4228 -153.136 9.2061 -169.668
lowerback -19.975 -2.17137 -2.22403
upperback 1.53851 -2.62898 2.87525
thorax 13.2699 -1.46946 3.70287
lowerneck -3.09078 -4.99494 0.249907
upperneck 22.2409 -6.15082 2.71198
head 7.39732 -2.18619 0.463615
rclavicle 1.66979e-014 4.13472e-014
rhumerus -44.6424 -15.7817 -76.6155
rradius 40.8475
rwrist -6.02231
rhand -7.70253 -53.0238
rfingers 7.12502
rthumb 18.195 -82.1928
lclavicle 1.66979e-014 4.13472e-014
lhumerus -28.0793 1.5521 78.2348
lradius 33.274
lwrist 2.00221
lhand -23.7404 -13.6388
lfingers 7.12502
lthumb 2.72803 16.3235
rfemur -71.536 1.26156 17.9863
rtibia 55.1252
rfoot -16.7987 6.78775
rtoes -30.3278
lfemur -24.8042 -9.22321 -5.17444
ltibia 16.1538
lfoot -16.0221 12.1952
ltoes -26.3769
